<svg id="Capa_1" enable-background="new 0 0 512 512" height="512" viewBox="0 0 512 512" width="512" xmlns="http://www.w3.org/2000/svg"><path d="m485.77 0h-323.48c-13.73 0-24.91 11.17-24.91 24.91v44.44h-43.12c-13.73 0-24.91 11.18-24.91 24.91v44.45h-43.12c-13.74 0-24.91 11.17-24.91 24.9v323.48c0 13.74 11.17 24.91 24.91 24.91h323.48c13.73 0 24.91-11.17 24.91-24.91v-44.44h43.12c13.73 0 24.91-11.18 24.91-24.91v-44.45h43.12c13.74 0 24.91-11.17 24.91-24.9v-323.48c0-13.74-11.17-24.91-24.91-24.91zm-141.15 482h-313.3v-313.29h38.03v249.03c0 13.73 11.18 24.91 24.91 24.91h250.36zm68.03-69.35c-6.511 0-305.112 0-313.3 0 0-10.796 0-300.633 0-313.3h38.03v249.04c0 13.73 11.18 24.9 24.91 24.9h250.36zm68.03-69.36c-13.491 0-304.512 0-313.3 0 0-6.524 0-303.768 0-313.29h313.3z"/></svg>